<?xml version="1.0" standalone="no"?>
<!DOCTYPE svg PUBLIC "-//W3C//DTD SVG 20010904//EN"
 "http://www.w3.org/TR/2001/REC-SVG-20010904/DTD/svg10.dtd">
<svg version="1.0" xmlns="http://www.w3.org/2000/svg"
 width="260.000000pt" height="260.000000pt" viewBox="0 0 260.000000 260.000000"
 preserveAspectRatio="xMidYMid meet">
<metadata>
Created by potrace 1.14, written by Peter Selinger 2001-2017
</metadata>
<g transform="translate(0.000000,260.000000) scale(0.100000,-0.100000)"
fill="#000000" stroke="none">
<path d="M1317 2564 c-1 -1 -48 -4 -103 -8 -470 -28 -888 -326 -1076 -766 -71
-164 -98 -320 -94 -525 3 -140 8 -175 35 -279 93 -354 337 -655 666 -819 78
-39 204 -83 280 -98 28 -6 64 -13 80 -17 17 -4 111 -6 210 -6 170 0 186 2 298
32 228 61 413 168 577 332 179 179 292 386 346 635 24 112 28 364 8 470 -51
266 -168 489 -354 675 -192 192 -430 314 -695 354 -99 15 -174 24 -178 20z
m188 -40 c267 -48 482 -160 670 -349 170 -170 280 -365 336 -600 28 -116 35
-349 13 -478 -42 -256 -159 -482 -349 -673 -235 -236 -538 -363 -870 -362
-346 0 -637 120 -880 363 -171 171 -267 340 -330 581 -22 81 -27 127 -30 254
-5 204 17 337 86 509 109 275 343 520 621 654 42 20 83 37 90 37 8 0 18 4 23
9 14 12 127 41 215 56 103 17 309 17 405 -1z"/>
<path d="M1064 1306 l0 -655 26 -7 c87 -23 312 -25 395 -2 l50 13 0 650 0 650
-235 3 -236 2 0 -654z"/>
<path d="M645 1361 c1 -163 5 -303 7 -311 3 -8 8 -28 13 -45 22 -83 84 -173
163 -235 49 -39 145 -90 170 -90 9 0 12 104 12 489 l0 488 -184 1 -184 0 3
-297z"/>
<path d="M1590 1164 l0 -494 58 25 c141 63 231 158 284 303 19 52 21 81 23
359 l2 301 -183 0 -184 -1 0 -493z"/>
</g>
</svg>
